<?xml version="1.0" encoding="utf-8"?>
<svg xmlns="http://www.w3.org/2000/svg" viewBox="0 0 24 24" width="18" height="18">
  <path d="M6.3007812 1.5L1.6992188 5.4003906L3 6.9003906L7.5996094 3L6.3007812 1.5 z M 17.699219 1.5L16.400391 3L21 6.9003906L22.300781 5.4003906L17.699219 1.5 z M 12 4C7 4 3 8 3 13C3 18 7 22 12 22C17 22 21 18 21 13C21 8 17 4 12 4 z M 12 6C15.9 6 19 9.1 19 13C19 16.9 15.9 20 12 20C8.1 20 5 16.9 5 13C5 9.1 8.1 6 12 6 z M 11 8L11 14.599609L15.599609 16.900391L16.400391 15.099609L13 13.447266L13 8L11 8 z" fill="#30b968" />
</svg>