<?xml version="1.0" encoding="utf-8"?>
<svg xmlns="http://www.w3.org/2000/svg" width="18" height="18" viewBox="0 0 24 24">
  <path d="M12 2C8.741068 2 5.8486894 3.5773875 4.0214844 6L4 6L4 6.0273438C2.7499527 7.6966931 2 9.7603852 2 12C2 17.511003 6.4889971 22 12 22C17.511003 22 22 17.511003 22 12C22 6.4889971 17.511003 2 12 2 z M 15 4.5839844C17.935098 5.7673596 20 8.6326468 20 12C20 14.087831 19.200587 15.978318 17.898438 17.400391C17.642583 16.590687 16.894567 16 16 16L15 16L15 13C15 12.448 14.552 12 14 12L9 12L9 10L10 10C10.552 10 11 9.552 11 9L11 7L13 7C14.105 7 15 6.105 15 5L15 4.5839844 z M 4.2070312 10.207031L6 12L9 15L9 16C9 17.105 9.895 18 11 18L11 19.931641C7.0457719 19.441154 4 16.090654 4 12C4 11.382188 4.0755245 10.784033 4.2070312 10.207031 z" fill="#969696" />
</svg>