<?xml version="1.0" encoding="utf-8"?>
<svg xmlns="http://www.w3.org/2000/svg" viewBox="0 0 24 24" width="18" height="18">
  <path d="M6 6C2.6983746 6 0 8.6983746 0 12C0 15.301625 2.6983746 18 6 18C7.94 18 9.6597656 17.080391 10.759766 15.650391C10.319766 15.020391 9.9303125 14.379297 9.5703125 13.779297C8.9303125 15.099297 7.57 16 6 16C3.7796254 16 2 14.220375 2 12C2 9.7796254 3.7796254 8 6 8C7.2222222 8 8.0436765 8.4577391 8.8554688 9.2695312C9.6672608 10.081323 10.392578 11.263672 11.142578 12.513672C11.892578 13.763672 12.667261 15.081323 13.730469 16.144531C14.793677 17.207739 16.222222 18 18 18C21.301625 18 24 15.301625 24 12C24 8.6983746 21.301625 6 18 6C16.06 6 14.340234 6.9196094 13.240234 8.3496094C13.680234 8.9796094 14.069688 9.6207031 14.429688 10.220703C15.069688 8.9007031 16.43 8 18 8C20.220375 8 22 9.7796254 22 12C22 14.220375 20.220375 16 18 16C16.777778 16 15.956323 15.542261 15.144531 14.730469C14.332739 13.918677 13.607422 12.736328 12.857422 11.486328C12.107422 10.236328 11.332739 8.9186765 10.269531 7.8554688C9.2063236 6.7922608 7.7777778 6 6 6 z" fill="#22B65A" />
</svg>