<svg xmlns="http://www.w3.org/2000/svg" viewBox="0 0 48 48">
  <path d="M24.048828 2 A 1.50015 1.50015 0 0 0 22.998047 2.3847656C22.998047 2.3847656 15.490168 9 6.5 9 A 1.50015 1.50015 0 0 0 5 10.5L5 22.759766C5 29.437814 8.0894135 40.426402 23.417969 46.882812 A 1.50015 1.50015 0 0 0 24.582031 46.882812C39.910586 40.426403 43 29.437814 43 22.759766L43 10.5 A 1.50015 1.50015 0 0 0 41.5 9C32.509832 9 25.001953 2.3847656 25.001953 2.3847656 A 1.50015 1.50015 0 0 0 24.048828 2 z M 24 5.4277344C26.062966 7.0863651 32.111257 11.337189 40 11.875L40 22.759766C40 28.502023 37.793444 37.765684 24 43.826172C10.206556 37.765684 8 28.502023 8 22.759766L8 11.875C15.888743 11.337189 21.937034 7.0863651 24 5.4277344 z M 24 12C20.704135 12 18 14.704135 18 18L18 20.279297C16.263561 20.905096 15 22.559951 15 24.5L15 29.5C15 31.967501 17.032499 34 19.5 34L28.5 34C30.967501 34 33 31.967501 33 29.5L33 24.5C33 22.559951 31.736439 20.905096 30 20.279297L30 18C30 14.704135 27.295865 12 24 12 z M 24 15C25.674135 15 27 16.325865 27 18L27 20L21 20L21 18C21 16.325865 22.325865 15 24 15 z M 19.5 23L28.5 23C29.346499 23 30 23.653501 30 24.5L30 29.5C30 30.346499 29.346499 31 28.5 31L19.5 31C18.653501 31 18 30.346499 18 29.5L18 24.5C18 23.653501 18.653501 23 19.5 23 z M 24 25 A 2 2 0 0 0 24 29 A 2 2 0 0 0 24 25 z" fill="#969696" />
</svg>