<svg xmlns="http://www.w3.org/2000/svg" viewBox="0 0 48 48">
  <path d="M9.5 8C6.467 8 4 10.468 4 13.5L4 19.5L4 34.5C4 37.532 6.467 40 9.5 40L38.5 40C41.533 40 44 37.532 44 34.5L44 19.5L44 13.5C44 10.468 41.533 8 38.5 8L9.5 8 z M 9.5 11L38.5 11C39.878 11 41 12.121 41 13.5L41 14.613281C40.247721 14.224692 39.399198 14 38.5 14L9.5 14C8.6008022 14 7.7522792 14.224692 7 14.613281L7 13.5C7 12.121 8.122 11 9.5 11 z M 9.5 17L38.5 17C39.898226 17 41 18.101774 41 19.5L41 20.601562C40.25 20.216562 39.4 20 38.5 20L30.181641 20C28.680641 20 27.339703 20.987031 26.845703 22.457031C26.434703 23.679031 25.291 24.5 24 24.5C22.709 24.5 21.56625 23.679031 21.15625 22.457031C20.66225 20.987031 19.320359 20 17.818359 20L9.5 20C8.6 20 7.75 20.216562 7 20.601562L7 19.5C7 18.101774 8.1017741 17 9.5 17 z" fill="#969696" />
</svg>