<svg xmlns="http://www.w3.org/2000/svg" width="48" height="48" viewBox="0 0 48 48">
  <path d="M24 4C12.972066 4 4 12.972074 4 24C4 35.027926 12.972066 44 24 44C35.027934 44 44 35.027926 44 24C44 12.972074 35.027934 4 24 4 z M 24 7C33.406615 7 41 14.593391 41 24C41 32.380773 34.967178 39.306373 27 40.720703L27 29L30.625 29C31.129 29 31.555188 28.623047 31.617188 28.123047L31.992188 25.123047C32.028188 24.839047 31.938047 24.553891 31.748047 24.337891C31.559047 24.122891 31.287 24 31 24L27 24L27 20.5C27 19.397 27.897 18.5 29 18.5L31 18.5C31.552 18.5 32 18.053 32 17.5L32 14.125C32 13.607 31.604844 13.174906 31.089844 13.128906C31.030844 13.123906 29.619984 13 27.833984 13C23.426984 13 21 15.616187 21 20.367188L21 24L17 24C16.448 24 16 24.447 16 25L16 28C16 28.553 16.448 29 17 29L21 29L21 40.720703C13.032822 39.306373 7 32.380773 7 24C7 14.593391 14.593385 7 24 7 z" fill="#969696" />
</svg>