<svg xmlns="http://www.w3.org/2000/svg" viewBox="0 0 48 48">
  <path d="M24 4C12.972066 4 4 12.972074 4 24C4 35.027926 12.972066 44 24 44C35.027934 44 44 35.027926 44 24C44 12.972074 35.027934 4 24 4 z M 24 7C33.406615 7 41 14.593391 41 24C41 33.406609 33.406615 41 24 41C14.593385 41 7 33.406609 7 24C7 14.593391 14.593385 7 24 7 z M 24 12C22.125 12 20.528815 12.757133 19.503906 13.910156C18.478997 15.063179 18 16.541667 18 18C18 19.458333 18.478997 20.936821 19.503906 22.089844C20.528815 23.242867 22.125 24 24 24C25.875 24 27.471185 23.242867 28.496094 22.089844C29.521003 20.936821 30 19.458333 30 18C30 16.541667 29.521003 15.063179 28.496094 13.910156C27.471185 12.757133 25.875 12 24 12 z M 24 15C25.124999 15 25.778816 15.367867 26.253906 15.902344C26.728997 16.436821 27 17.208333 27 18C27 18.791667 26.728997 19.563179 26.253906 20.097656C25.778816 20.632133 25.124999 21 24 21C22.875001 21 22.221184 20.632133 21.746094 20.097656C21.271003 19.563179 21 18.791667 21 18C21 17.208333 21.271003 16.436821 21.746094 15.902344C22.221184 15.367867 22.875001 15 24 15 z M 17.300781 26C15.500781 26 14 27.500781 14 29.300781L14 30.400391C14 32.38002 15.237554 34.115912 17.023438 35.271484C18.80932 36.427056 21.204902 37.099609 24 37.099609C26.795098 37.099609 29.19068 36.427056 30.976562 35.271484C32.762446 34.115912 34 32.38002 34 30.400391L34 29.300781C34 27.500781 32.499219 26 30.699219 26L17.300781 26 z M 17.300781 29L30.699219 29C30.899219 29 31 29.100781 31 29.300781L31 30.400391C31 31.120761 30.536772 31.984478 29.347656 32.753906C28.15854 33.523334 26.304902 34.099609 24 34.099609C21.695098 34.099609 19.84146 33.523334 18.652344 32.753906C17.463228 31.984478 17 31.120761 17 30.400391L17 29.300781C17 29.100781 17.100781 29 17.300781 29 z" fill="#969696" />
</svg>