<svg xmlns="http://www.w3.org/2000/svg" viewBox="0 0 48 48">
  <path d="M24 9C12.701887 9 2.7325422 16.815632 0.048828125 27.121094 A 1.50015 1.50015 0 1 0 2.9511719 27.878906C5.2674578 18.984368 14.098113 12 24 12C33.901887 12 42.732542 18.984368 45.048828 27.878906 A 1.50015 1.50015 0 1 0 47.951172 27.121094C45.267458 16.815632 35.298113 9 24 9 z M 24 17C18.660602 17 14.300781 21.359825 14.300781 26.699219C14.300781 32.038612 18.660602 36.400391 24 36.400391C29.339398 36.400391 33.699219 32.038612 33.699219 26.699219C33.699219 21.359825 29.339398 17 24 17 z M 24 20C27.718078 20 30.699219 22.981143 30.699219 26.699219C30.699219 30.417295 27.718078 33.400391 24 33.400391C20.281922 33.400391 17.300781 30.417295 17.300781 26.699219C17.300781 22.981143 20.281922 20 24 20 z" fill="#969696" />
</svg>