<svg xmlns="http://www.w3.org/2000/svg" viewBox="0 0 48 48">
  <path d="M21 1C16.599415 1 13 4.599415 13 9L13 13L9.5 13C7.02 13 5 15.02 5 17.5L5 36.5C5 38.98 7.02 41 9.5 41L20.419922 41C20.499922 40.8 20.600938 40.609688 20.710938 40.429688L22.169922 38L9.5 38C8.67 38 8 37.33 8 36.5L8 17.5C8 16.67 8.67 16 9.5 16L32.5 16C33.33 16 34 16.67 34 17.5L34 23C35.1 23 36.15 23.359766 37 24.009766L37 17.5C37 15.02 34.98 13 32.5 13L29 13L29 9C29 4.599415 25.400585 1 21 1 z M 21 4C23.779415 4 26 6.220585 26 9L26 13L16 13L16 9C16 6.220585 18.220585 4 21 4 z M 21 24 A 3 3 0 0 0 21 30 A 3 3 0 0 0 21 24 z M 34 25C32.946 25 31.969734 25.553031 31.427734 26.457031L22.427734 41.457031C21.871734 42.384031 21.856672 43.538516 22.388672 44.478516C22.921672 45.418516 23.919 46 25 46L43 46C44.081 46 45.078328 45.418516 45.611328 44.478516C46.143328 43.538516 46.128266 42.383031 45.572266 41.457031L36.572266 26.457031C36.030266 25.553031 35.054 25 34 25 z M 34 29C34.552 29 35 29.448 35 30L35 38C35 38.552 34.552 39 34 39C33.448 39 33 38.552 33 38L33 30C33 29.448 33.448 29 34 29 z M 34 40.75C34.69 40.75 35.25 41.31 35.25 42C35.25 42.69 34.69 43.25 34 43.25C33.31 43.25 32.75 42.69 32.75 42C32.75 41.31 33.31 40.75 34 40.75 z" fill="#969696" />
</svg>